<svg xmlns="http://www.w3.org/2000/svg" viewBox="0 0 512 512" fill="none">
  <rect width="512" height="512" rx="96" fill="#0f766e"/>
  <path d="M256 96c-61.9 0-112 50.1-112 112 0 35.3 16.3 66.8 41.8 87.5L256 416l70.2-120.5C351.7 274.8 368 243.3 368 208c0-61.9-50.1-112-112-112z" fill="#ccfbf1"/>
  <path d="M256 144c-35.3 0-64 28.7-64 64s28.7 64 64 64 64-28.7 64-64-28.7-64-64-64z" fill="#14b8a6"/>
  <rect x="120" y="340" width="80" height="16" rx="8" fill="#ccfbf1" opacity="0.8"/>
  <rect x="220" y="360" width="120" height="16" rx="8" fill="#ccfbf1" opacity="0.6"/>
  <rect x="160" y="380" width="60" height="16" rx="8" fill="#ccfbf1" opacity="0.5"/>
</svg>
